<?xml version="1.0" standalone="no"?>
<!DOCTYPE svg PUBLIC "-//W3C//DTD SVG 20010904//EN"
 "http://www.w3.org/TR/2001/REC-SVG-20010904/DTD/svg10.dtd">
<svg version="1.0" xmlns="http://www.w3.org/2000/svg"
 width="313.000000pt" height="313.000000pt" viewBox="0 0 313.000000 313.000000"
 preserveAspectRatio="xMidYMid meet">
<metadata>
Created by potrace 1.11, written by Peter Selinger 2001-2013
</metadata>
<g transform="translate(0.000000,313.000000) scale(0.100000,-0.100000)"
fill="#000000" stroke="none">
<path d="M1165 2860 c-213 -34 -382 -153 -478 -337 -29 -57 -35 -63 -72 -69
-55 -9 -171 -51 -225 -82 -79 -45 -176 -129 -229 -199 -238 -314 -208 -728 72
-1004 l70 -69 -2 -72 c-6 -236 159 -447 390 -498 69 -15 197 -9 258 13 l45 16
43 -40 c149 -137 377 -231 592 -245 365 -24 730 169 916 483 l30 51 80 5 c44
2 105 13 135 23 125 42 245 157 296 283 31 79 43 208 25 291 -28 131 -136 275
-247 330 l-51 25 -6 95 c-4 52 -14 122 -23 155 -89 333 -390 565 -734 565 -75
0 -186 -17 -231 -34 -11 -5 -26 9 -54 49 -129 188 -383 300 -600 265z m935
-785 l0 -135 120 0 120 0 0 -115 0 -115 -120 0 -120 0 0 -248 c0 -309 -7 -292
129 -292 l98 0 7 -102 c5 -76 4 -103 -5 -109 -24 -15 -183 -31 -246 -26 -120
12 -186 59 -220 160 -15 46 -18 111 -21 585 l-3 532 131 0 130 0 0 -135z
m-1090 -137 c51 -35 73 -71 77 -130 9 -106 -63 -184 -160 -175 -83 7 -138 64
-144 149 -11 134 124 226 227 156z m570 -498 l0 -490 -130 0 -130 0 0 490 0
490 130 0 130 0 0 -490z"/>
</g>
</svg>
