<?xml version="1.0" encoding="UTF-8"?>
<svg width="313px" height="260px" viewBox="0 0 313 260" version="1.1" xmlns="http://www.w3.org/2000/svg" xmlns:xlink="http://www.w3.org/1999/xlink">
    <g id="Page-1" stroke="none" stroke-width="1" fill="none" fill-rule="evenodd">
        <g id="rounded-cloud-svgrepo-com" fill="#0066CC" fill-rule="nonzero">
            <path d="M169.125,259.971 C143.05,259.971 117.84,249.523 99.265,231.157 C93.071,233.824 86.347,235.226 79.568,235.226 C52.15,235.226 29.846,212.922 29.846,185.498 C29.846,182.568 30.126,179.597 30.675,176.625 C11.391,162.359 0,139.936 0,115.829 C0,77.916 28.617,45.73 65.85,40.891 C75.176,16.492 98.405,0.364 124.844,0.364 C147.918,0.364 169.017,12.972 180.085,32.931 C188.057,30.174 196.369,28.778 204.883,28.778 C246.83,28.778 280.955,62.897 280.955,104.838 C280.955,106.598 280.877,108.388 280.722,110.286 C299.565,117.661 312.334,136.015 312.334,156.553 C312.334,185.671 286.987,209.002 257.481,206.012 C240.501,238.932 206.299,259.971 169.125,259.971 Z M132,191.825933 L132,192 L158,192 L158,94 L132,94 L132,191.825933 Z M233.655172,115.768077 L233.827586,115.768077 L233.827586,93.2414734 L210.034483,93.2414734 L210.034483,66 L184,66 L184,156.630287 C184,170.949523 186.068966,180.728513 190.37931,185.967258 C194.517241,191.380628 202.448276,194 214.172413,194 C218.655173,194 225.37931,192.952251 234,191.031378 L232.793104,170.076399 L217.965517,170.425649 C215.37931,170.425649 213.482759,169.901774 212.275862,168.6794 C211.068966,167.457026 210.37931,166.060028 210.206896,164.488404 C210.034483,162.742156 209.862069,160.122783 209.862069,156.106412 L209.862069,115.768077 L233.655172,115.768077 Z M93.6722223,124 C98.3222223,124 101.938889,122.394595 104.694445,119.540541 C107.622222,116.32973 109,112.583784 109,107.767568 C109,102.951351 107.622222,99.027027 104.694445,95.8162161 C101.766667,92.6054051 97.9777777,91 93.5,91 C89.0222223,91 85.2333331,92.427027 82.3055554,95.6378379 C79.55,98.8486489 78,102.772973 78,107.410811 C78,112.048649 79.55,115.972973 82.4777777,119.183784 C85.4055554,122.394595 89.1944446,124 93.6722223,124 Z" id="Combined-Shape"></path>
        </g>
    </g>
</svg>