<?xml version="1.0" encoding="UTF-8"?>
<svg width="32px" height="26px" viewBox="0 0 32 26" version="1.1" xmlns="http://www.w3.org/2000/svg" xmlns:xlink="http://www.w3.org/1999/xlink">
    <title>2AE00EAD-0315-48F1-B91D-76B2FC68DF8C</title>
    <g id="Hi-Fi" stroke="none" stroke-width="1" fill="none" fill-rule="evenodd">
        <g id="1280-cloud-home___" transform="translate(-71.000000, -4175.000000)" fill="#0066CC">
            <g id="Forum-Italia-Logo" transform="translate(71.000000, 4168.000000)">
                <path d="M27.2068965,7 L27.2068965,12.5334243 L31.9655172,12.5334243 L31.9655172,17.1091406 L27.1724137,17.1091406 L27.1724137,25.3028649 C27.1724137,26.1186904 27.2068965,26.6507504 27.2413793,27.005457 C27.2758621,27.3246931 27.4137931,27.6084584 27.6551724,27.8567532 C27.8965517,28.1050478 28.2758621,28.2114599 28.7931034,28.2114599 L31.7586207,28.1405185 L32,32.3969987 C30.275862,32.787176 28.9310345,33 28.0344827,33 C25.6896551,33 24.1034482,32.4679401 23.2758621,31.3683493 C22.4137931,30.3042293 22,28.3178719 22,25.4092771 L22,7 L27.2068965,7 Z M16.5714286,12.8571429 L16.5714286,32.4285714 L11.2142857,32.4285714 L11.2142857,12.8571429 L16.5714286,12.8571429 Z M3.28571429,11.6428571 C4.23492062,11.6428571 5.03809529,11.9625482 5.65873019,12.6019305 C6.2793651,13.2413127 6.57142857,14.0227799 6.57142857,14.9818533 C6.57142857,15.9409267 6.2793651,16.6868726 5.65873019,17.3262549 C5.0746031,17.8945946 4.30793652,18.2142857 3.32222224,18.2142857 C2.3730159,18.2142857 1.56984124,17.8945946 0.949206333,17.2552124 C0.328571429,16.6158301 0,15.834363 0,14.9108108 C0,13.9872587 0.328571429,13.2057916 0.912698381,12.5664093 C1.53333329,11.927027 2.33650795,11.6428571 3.28571429,11.6428571 Z" id="Combined-Shape-Copy-2"></path>
            </g>
        </g>
    </g>
</svg>