<?xml version="1.0" encoding="UTF-8"?>
<svg width="32px" height="32px" viewBox="0 0 32 32" version="1.1" xmlns="http://www.w3.org/2000/svg" xmlns:xlink="http://www.w3.org/1999/xlink">
    <title>72F53F1B-FECC-4580-8BBF-E548BC498E65</title>
    <g id="Hi-Fi" stroke="none" stroke-width="1" fill="none" fill-rule="evenodd">
        <g id="1280-cloud-home___" transform="translate(-677.000000, -4175.000000)" fill="#0066CC">
            <g id="Group-29" transform="translate(653.000000, 4151.000000)">
                <g id="GitHub-Logo" transform="translate(24.000000, 17.000000)">
                    <path d="M15.9985267,7 C7.16436969,7 0,14.1633875 0,23.0004911 C0,30.0695847 4.58405721,36.0660855 10.9420179,38.1818042 C11.7425335,38.3291384 12.0342552,37.8350778 12.0342552,37.4107554 C12.0342552,37.0316155 12.020504,36.0248319 12.0126462,34.6899843 C7.56217195,35.6564965 6.62316216,32.5447988 6.62316216,32.5447988 C5.89533135,30.696246 4.84631204,30.2041499 4.84631204,30.2041499 C3.3935971,29.2120998 4.95632156,29.2317444 4.95632156,29.2317444 C6.56226404,29.3447006 7.40697996,30.8809049 7.40697996,30.8809049 C8.83415697,33.3256699 11.1522146,32.6194481 12.063722,32.2098591 C12.2090917,31.1765554 12.6226097,30.4713159 13.0793456,30.0715492 C9.52662758,29.6678535 5.7912152,28.294699 5.7912152,22.163633 C5.7912152,20.417232 6.41492986,18.9880905 7.43841125,17.8703152 C7.27339697,17.4656374 6.72433162,15.8380859 7.5955677,13.6359311 C7.5955677,13.6359311 8.93827312,13.2057153 11.9949661,15.2762516 C13.27088,14.9206851 14.6401056,14.7438841 16.0004911,14.7370085 C17.3598944,14.7438841 18.7281378,14.9206851 20.0060161,15.2762516 C23.0607447,13.2057153 24.4014856,13.6359311 24.4014856,13.6359311 C25.2746861,15.8380859 24.7256208,17.4656374 24.5615888,17.8703152 C25.5870346,18.9880905 26.2058381,20.417232 26.2058381,22.163633 C26.2058381,28.3104147 22.4645324,29.6629424 18.9010099,30.0587802 C19.4746309,30.5528408 19.9863716,31.5291752 19.9863716,33.0221615 C19.9863716,35.1604715 19.966727,36.8862457 19.966727,37.4107554 C19.966727,37.8390067 20.255502,38.3369962 21.0668222,38.180822 C27.4198717,36.0601921 32,30.0676202 32,23.0004911 C32,14.1633875 24.8356303,7 15.9985267,7" id="Fill-4"></path>
                </g>
            </g>
        </g>
    </g>
</svg>