<?xml version="1.0" encoding="UTF-8"?>
<svg width="32px" height="32px" viewBox="0 0 32 32" version="1.1" xmlns="http://www.w3.org/2000/svg" xmlns:xlink="http://www.w3.org/1999/xlink">
    <title>33056463-E5B5-4E2C-8374-7B979F439C84</title>
    <g id="Hi-Fi" stroke="none" stroke-width="1" fill="none" fill-rule="evenodd">
        <g id="1280-cloud-home___" transform="translate(-374.000000, -4175.000000)" fill="#0066CC" fill-rule="nonzero">
            <g id="Slack-Logo" transform="translate(374.000000, 4168.000000)">
                <g id="Group-20" transform="translate(0.000000, 7.000000)">
                    <path d="M6.73015873,20.1650794 C6.73015873,22.0190476 5.23174603,23.5174603 3.37777778,23.5174603 C1.52380952,23.5174603 0.0253968254,22.0190476 0.0253968254,20.1650794 C0.0253968254,18.3111111 1.52380952,16.8126984 3.37777778,16.8126984 L6.73015873,16.8126984 L6.73015873,20.1650794 Z" id="Path"></path>
                    <path d="M8.40634921,20.1650794 C8.40634921,18.3111111 9.9047619,16.8126984 11.7587302,16.8126984 C13.6126984,16.8126984 15.1111111,18.3111111 15.1111111,20.1650794 L15.1111111,28.5460317 C15.1111111,30.4 13.6126984,31.8984127 11.7587302,31.8984127 C9.9047619,31.8984127 8.40634921,30.4 8.40634921,28.5460317 L8.40634921,20.1650794 Z" id="Path"></path>
                    <path d="M11.7587302,6.7047619 C9.9047619,6.7047619 8.40634921,5.20634921 8.40634921,3.35238095 C8.40634921,1.4984127 9.9047619,0 11.7587302,0 C13.6126984,0 15.1111111,1.4984127 15.1111111,3.35238095 L15.1111111,6.7047619 L11.7587302,6.7047619 Z" id="Path"></path>
                    <path d="M11.7587302,8.40634921 C13.6126984,8.40634921 15.1111111,9.9047619 15.1111111,11.7587302 C15.1111111,13.6126984 13.6126984,15.1111111 11.7587302,15.1111111 L3.35238095,15.1111111 C1.4984127,15.1111111 0,13.6126984 0,11.7587302 C0,9.9047619 1.4984127,8.40634921 3.35238095,8.40634921 L11.7587302,8.40634921 Z" id="Path"></path>
                    <path d="M25.1936508,11.7587302 C25.1936508,9.9047619 26.6920635,8.40634921 28.5460317,8.40634921 C30.4,8.40634921 31.8984127,9.9047619 31.8984127,11.7587302 C31.8984127,13.6126984 30.4,15.1111111 28.5460317,15.1111111 L25.1936508,15.1111111 L25.1936508,11.7587302 Z" id="Path"></path>
                    <path d="M23.5174603,11.7587302 C23.5174603,13.6126984 22.0190476,15.1111111 20.1650794,15.1111111 C18.3111111,15.1111111 16.8126984,13.6126984 16.8126984,11.7587302 L16.8126984,3.35238095 C16.8126984,1.4984127 18.3111111,0 20.1650794,0 C22.0190476,0 23.5174603,1.4984127 23.5174603,3.35238095 L23.5174603,11.7587302 L23.5174603,11.7587302 Z" id="Path"></path>
                    <path d="M20.1650794,25.1936508 C22.0190476,25.1936508 23.5174603,26.6920635 23.5174603,28.5460317 C23.5174603,30.4 22.0190476,31.8984127 20.1650794,31.8984127 C18.3111111,31.8984127 16.8126984,30.4 16.8126984,28.5460317 L16.8126984,25.1936508 L20.1650794,25.1936508 Z" id="Path"></path>
                    <path d="M20.1650794,23.5174603 C18.3111111,23.5174603 16.8126984,22.0190476 16.8126984,20.1650794 C16.8126984,18.3111111 18.3111111,16.8126984 20.1650794,16.8126984 L28.5714286,16.8126984 C30.4253968,16.8126984 31.9238095,18.3111111 31.9238095,20.1650794 C31.9238095,22.0190476 30.4253968,23.5174603 28.5714286,23.5174603 L20.1650794,23.5174603 Z" id="Path"></path>
                </g>
            </g>
        </g>
    </g>
</svg>